<svg id="a75e3f3a-2661-410b-82fb-d300d37dea2d" xmlns="http://www.w3.org/2000/svg"  width="100%" height="100%" viewBox="0 0 18 18"><defs><linearGradient id="aff60ddf-eec1-40bf-8bf5-f3e3b50e8818" x1="9" y1="16.21" x2="9" y2="0.62" gradientUnits="userSpaceOnUse"><stop offset="0" stop-color="#ffffff"/><stop offset="0.2" stop-color="#ffffff"/><stop offset="0.4" stop-color="#ffffff"/><stop offset="0.7" stop-color="#ffffff"/><stop offset="0.9" stop-color="#ffffff"/><stop offset="1" stop-color="#ffffff"/></linearGradient></defs><path d="M 16 8.4 c 0 4.6 -5.5 8.3 -6.7 9 a 0.4 0.4 0 0 1 -0.5 0 C 7.6 16.7 2 13 2 8.4 V 2.9 a 0.4 0.4 0 0 1 0.4 -0.4 C 6.8 2.4 5.8 0.5 9 0.5 s 2.2 1.9 6.5 2 a 0.4 0.4 0 0 1 0.4 0.4 Z" fill="#ffffff"/><path d="M 15.4 8.5 c 0 4.2 -5.1 7.6 -6.2 8.3 a 0.4 0.4 0 0 1 -0.4 0 c -1.1 -0.7 -6.2 -4 -6.2 -8.3 v -5 A 0.4 0.4 0 0 1 3 3 c 3.9 -0.1 3 -1.8 6 -1.8 S 11.1 2.9 15 3 a 0.4 0.4 0 0 1 0.4 0.4 Z" fill="url(#aff60ddf-eec1-40bf-8bf5-f3e3b50e8818)"/><path d="M 9 6.5 A 2.9 2.9 0 0 1 11.8 9 a 0.5 0.5 0 0 0 0.5 0.4 h 1.4 a 0.5 0.5 0 0 0 0.5 -0.5 a 5.3 5.3 0 0 0 -10.5 0 a 0.5 0.5 0 0 0 0.5 0.5 h 1.4 A 0.5 0.5 0 0 0 6.2 9 A 2.9 2.9 0 0 1 9 6.5 Z" fill="#000000"/><circle cx="9" cy="9.4" r="1.9" fill="#000000"/></svg>
